<mxfile host="app.diagrams.net" modified="2022-02-07T14:29:40.002Z" agent="5.0 (Macintosh; Intel Mac OS X 10_15_7) AppleWebKit/537.36 (KHTML, like Gecko) Chrome/97.0.4692.71 Safari/537.36" etag="Zuu55k6uSSKD9vCGIzOD" version="16.5.3" type="github">
  <diagram id="C5RBs43oDa-KdzZeNtuy" name="Page-1">
    <mxGraphModel dx="1483" dy="889" grid="1" gridSize="10" guides="1" tooltips="1" connect="1" arrows="1" fold="1" page="1" pageScale="1" pageWidth="3300" pageHeight="4681" math="0" shadow="0">
      <root>
        <mxCell id="WIyWlLk6GJQsqaUBKTNV-0" />
        <mxCell id="WIyWlLk6GJQsqaUBKTNV-1" parent="WIyWlLk6GJQsqaUBKTNV-0" />
        <mxCell id="hy8ncsl_hrlQ7l1LEnPW-123" value="" style="rounded=0;whiteSpace=wrap;html=1;glass=0;dashed=1;strokeColor=default;fillColor=none;" vertex="1" parent="WIyWlLk6GJQsqaUBKTNV-1">
          <mxGeometry x="880" y="20" width="980" height="1420" as="geometry" />
        </mxCell>
        <mxCell id="hy8ncsl_hrlQ7l1LEnPW-115" value="" style="rounded=0;whiteSpace=wrap;html=1;glass=0;strokeColor=default;fillColor=none;dashed=1;" vertex="1" parent="WIyWlLk6GJQsqaUBKTNV-1">
          <mxGeometry x="1040" y="510" width="420" height="100" as="geometry" />
        </mxCell>
        <mxCell id="hy8ncsl_hrlQ7l1LEnPW-13" value="" style="rounded=0;whiteSpace=wrap;html=1;fillColor=none;dashed=1;glass=0;" vertex="1" parent="WIyWlLk6GJQsqaUBKTNV-1">
          <mxGeometry x="47.37" y="740" width="710" height="1190" as="geometry" />
        </mxCell>
        <mxCell id="hy8ncsl_hrlQ7l1LEnPW-83" value="" style="rounded=0;whiteSpace=wrap;html=1;glass=0;dashed=1;strokeColor=default;fillColor=none;" vertex="1" parent="WIyWlLk6GJQsqaUBKTNV-1">
          <mxGeometry x="560" y="1560" width="190" height="200" as="geometry" />
        </mxCell>
        <mxCell id="hy8ncsl_hrlQ7l1LEnPW-77" value="" style="rounded=0;whiteSpace=wrap;html=1;glass=0;strokeColor=default;fillColor=none;dashed=1;" vertex="1" parent="WIyWlLk6GJQsqaUBKTNV-1">
          <mxGeometry x="130" y="1150" width="350" height="670" as="geometry" />
        </mxCell>
        <mxCell id="hy8ncsl_hrlQ7l1LEnPW-34" value="" style="rounded=0;whiteSpace=wrap;html=1;fillColor=none;dashed=1;glass=0;" vertex="1" parent="WIyWlLk6GJQsqaUBKTNV-1">
          <mxGeometry x="47.370000000000005" y="30" width="731.25" height="610" as="geometry" />
        </mxCell>
        <mxCell id="hy8ncsl_hrlQ7l1LEnPW-7" value="" style="edgeStyle=orthogonalEdgeStyle;rounded=0;orthogonalLoop=1;jettySize=auto;html=1;" edge="1" parent="WIyWlLk6GJQsqaUBKTNV-1" source="hy8ncsl_hrlQ7l1LEnPW-5" target="hy8ncsl_hrlQ7l1LEnPW-6">
          <mxGeometry relative="1" as="geometry" />
        </mxCell>
        <mxCell id="hy8ncsl_hrlQ7l1LEnPW-5" value="AddDownloadTask" style="rounded=1;whiteSpace=wrap;html=1;" vertex="1" parent="WIyWlLk6GJQsqaUBKTNV-1">
          <mxGeometry x="352" y="790" width="120" height="60" as="geometry" />
        </mxCell>
        <mxCell id="hy8ncsl_hrlQ7l1LEnPW-9" value="NormalTask" style="edgeStyle=orthogonalEdgeStyle;rounded=0;orthogonalLoop=1;jettySize=auto;html=1;" edge="1" parent="WIyWlLk6GJQsqaUBKTNV-1" source="hy8ncsl_hrlQ7l1LEnPW-6" target="hy8ncsl_hrlQ7l1LEnPW-8">
          <mxGeometry relative="1" as="geometry" />
        </mxCell>
        <mxCell id="hy8ncsl_hrlQ7l1LEnPW-11" value="" style="edgeStyle=orthogonalEdgeStyle;rounded=0;orthogonalLoop=1;jettySize=auto;html=1;" edge="1" parent="WIyWlLk6GJQsqaUBKTNV-1" source="hy8ncsl_hrlQ7l1LEnPW-6" target="hy8ncsl_hrlQ7l1LEnPW-10">
          <mxGeometry relative="1" as="geometry">
            <Array as="points">
              <mxPoint x="510" y="965" />
              <mxPoint x="510" y="1310" />
            </Array>
          </mxGeometry>
        </mxCell>
        <mxCell id="hy8ncsl_hrlQ7l1LEnPW-12" value="QuicklTask" style="edgeLabel;html=1;align=center;verticalAlign=middle;resizable=0;points=[];" vertex="1" connectable="0" parent="hy8ncsl_hrlQ7l1LEnPW-11">
          <mxGeometry y="1" relative="1" as="geometry">
            <mxPoint as="offset" />
          </mxGeometry>
        </mxCell>
        <mxCell id="hy8ncsl_hrlQ7l1LEnPW-6" value="Is QuickTask&lt;br&gt;or&lt;br&gt;NormalTask" style="rhombus;whiteSpace=wrap;html=1;rounded=0;" vertex="1" parent="WIyWlLk6GJQsqaUBKTNV-1">
          <mxGeometry x="350" y="910" width="124" height="110" as="geometry" />
        </mxCell>
        <mxCell id="hy8ncsl_hrlQ7l1LEnPW-41" value="" style="edgeStyle=orthogonalEdgeStyle;rounded=0;orthogonalLoop=1;jettySize=auto;html=1;" edge="1" parent="WIyWlLk6GJQsqaUBKTNV-1" source="hy8ncsl_hrlQ7l1LEnPW-8" target="hy8ncsl_hrlQ7l1LEnPW-40">
          <mxGeometry relative="1" as="geometry" />
        </mxCell>
        <mxCell id="hy8ncsl_hrlQ7l1LEnPW-8" value="Push into PreHandleChannel" style="whiteSpace=wrap;html=1;rounded=0;" vertex="1" parent="WIyWlLk6GJQsqaUBKTNV-1">
          <mxGeometry x="350" y="1080" width="120" height="60" as="geometry" />
        </mxCell>
        <mxCell id="hy8ncsl_hrlQ7l1LEnPW-10" value="push into QuickChannel" style="whiteSpace=wrap;html=1;rounded=0;" vertex="1" parent="WIyWlLk6GJQsqaUBKTNV-1">
          <mxGeometry x="580" y="1280" width="120" height="60" as="geometry" />
        </mxCell>
        <mxCell id="hy8ncsl_hrlQ7l1LEnPW-14" value="add download task flow" style="text;html=1;strokeColor=none;fillColor=none;align=center;verticalAlign=middle;whiteSpace=wrap;rounded=0;glass=0;dashed=1;" vertex="1" parent="WIyWlLk6GJQsqaUBKTNV-1">
          <mxGeometry x="58" y="760" width="170" height="30" as="geometry" />
        </mxCell>
        <mxCell id="hy8ncsl_hrlQ7l1LEnPW-17" value="" style="edgeStyle=orthogonalEdgeStyle;rounded=0;orthogonalLoop=1;jettySize=auto;html=1;" edge="1" parent="WIyWlLk6GJQsqaUBKTNV-1" source="hy8ncsl_hrlQ7l1LEnPW-15" target="hy8ncsl_hrlQ7l1LEnPW-16">
          <mxGeometry relative="1" as="geometry" />
        </mxCell>
        <mxCell id="hy8ncsl_hrlQ7l1LEnPW-15" value="NewDownloadMgr" style="rounded=1;whiteSpace=wrap;html=1;glass=0;fillColor=none;strokeColor=default;" vertex="1" parent="WIyWlLk6GJQsqaUBKTNV-1">
          <mxGeometry x="352.25" y="70" width="120" height="60" as="geometry" />
        </mxCell>
        <mxCell id="hy8ncsl_hrlQ7l1LEnPW-21" value="" style="edgeStyle=orthogonalEdgeStyle;rounded=0;orthogonalLoop=1;jettySize=auto;html=1;" edge="1" parent="WIyWlLk6GJQsqaUBKTNV-1" source="hy8ncsl_hrlQ7l1LEnPW-16" target="hy8ncsl_hrlQ7l1LEnPW-20">
          <mxGeometry relative="1" as="geometry" />
        </mxCell>
        <mxCell id="hy8ncsl_hrlQ7l1LEnPW-16" value="init PreHandleChannel" style="whiteSpace=wrap;html=1;fillColor=none;rounded=0;glass=0;" vertex="1" parent="WIyWlLk6GJQsqaUBKTNV-1">
          <mxGeometry x="338.75" y="160" width="147" height="60" as="geometry" />
        </mxCell>
        <mxCell id="hy8ncsl_hrlQ7l1LEnPW-31" value="" style="edgeStyle=orthogonalEdgeStyle;rounded=0;orthogonalLoop=1;jettySize=auto;html=1;" edge="1" parent="WIyWlLk6GJQsqaUBKTNV-1" source="hy8ncsl_hrlQ7l1LEnPW-20" target="hy8ncsl_hrlQ7l1LEnPW-30">
          <mxGeometry relative="1" as="geometry" />
        </mxCell>
        <mxCell id="hy8ncsl_hrlQ7l1LEnPW-20" value="init QuickChannel&lt;br&gt;init RandomChannel&lt;br&gt;init UnpauseChannel&lt;br&gt;init UnpauseSlowChannel" style="whiteSpace=wrap;html=1;fillColor=none;rounded=0;glass=0;" vertex="1" parent="WIyWlLk6GJQsqaUBKTNV-1">
          <mxGeometry x="338.75" y="250" width="147" height="80" as="geometry" />
        </mxCell>
        <mxCell id="hy8ncsl_hrlQ7l1LEnPW-33" value="" style="edgeStyle=orthogonalEdgeStyle;rounded=0;orthogonalLoop=1;jettySize=auto;html=1;" edge="1" parent="WIyWlLk6GJQsqaUBKTNV-1" source="hy8ncsl_hrlQ7l1LEnPW-30" target="hy8ncsl_hrlQ7l1LEnPW-32">
          <mxGeometry relative="1" as="geometry" />
        </mxCell>
        <mxCell id="hy8ncsl_hrlQ7l1LEnPW-30" value="PreHandle Channel&lt;br&gt;start 3 gorutinue&lt;br&gt;loop classify task in preHandleChannel" style="whiteSpace=wrap;html=1;fillColor=none;rounded=0;glass=0;" vertex="1" parent="WIyWlLk6GJQsqaUBKTNV-1">
          <mxGeometry x="321.25" y="370" width="183" height="70" as="geometry" />
        </mxCell>
        <mxCell id="hy8ncsl_hrlQ7l1LEnPW-32" value="QuickChannel RandomChannel UnpauseChannel UnpauseSlowChannel&lt;br&gt;start 6 gorutine in each channel&lt;br&gt;to do downlaod task" style="whiteSpace=wrap;html=1;fillColor=none;rounded=0;glass=0;" vertex="1" parent="WIyWlLk6GJQsqaUBKTNV-1">
          <mxGeometry x="295.25" y="490" width="235.5" height="100" as="geometry" />
        </mxCell>
        <mxCell id="hy8ncsl_hrlQ7l1LEnPW-35" value="init downloadMgr" style="text;html=1;strokeColor=none;fillColor=none;align=center;verticalAlign=middle;whiteSpace=wrap;rounded=0;glass=0;dashed=1;" vertex="1" parent="WIyWlLk6GJQsqaUBKTNV-1">
          <mxGeometry x="47.370000000000005" y="30" width="170" height="30" as="geometry" />
        </mxCell>
        <mxCell id="hy8ncsl_hrlQ7l1LEnPW-51" value="" style="edgeStyle=orthogonalEdgeStyle;rounded=0;orthogonalLoop=1;jettySize=auto;html=1;" edge="1" parent="WIyWlLk6GJQsqaUBKTNV-1" source="hy8ncsl_hrlQ7l1LEnPW-38" target="hy8ncsl_hrlQ7l1LEnPW-50">
          <mxGeometry relative="1" as="geometry" />
        </mxCell>
        <mxCell id="hy8ncsl_hrlQ7l1LEnPW-38" value="get task from PreHandleChannel idle list&lt;br&gt;FIFO" style="whiteSpace=wrap;html=1;rounded=0;" vertex="1" parent="WIyWlLk6GJQsqaUBKTNV-1">
          <mxGeometry x="350" y="1340" width="120" height="60" as="geometry" />
        </mxCell>
        <mxCell id="hy8ncsl_hrlQ7l1LEnPW-43" value="" style="edgeStyle=orthogonalEdgeStyle;rounded=0;orthogonalLoop=1;jettySize=auto;html=1;" edge="1" parent="WIyWlLk6GJQsqaUBKTNV-1" source="hy8ncsl_hrlQ7l1LEnPW-40" target="hy8ncsl_hrlQ7l1LEnPW-42">
          <mxGeometry relative="1" as="geometry" />
        </mxCell>
        <mxCell id="hy8ncsl_hrlQ7l1LEnPW-44" value="no" style="edgeLabel;html=1;align=center;verticalAlign=middle;resizable=0;points=[];" vertex="1" connectable="0" parent="hy8ncsl_hrlQ7l1LEnPW-43">
          <mxGeometry x="0.035" y="1" relative="1" as="geometry">
            <mxPoint as="offset" />
          </mxGeometry>
        </mxCell>
        <mxCell id="hy8ncsl_hrlQ7l1LEnPW-48" style="edgeStyle=orthogonalEdgeStyle;rounded=0;orthogonalLoop=1;jettySize=auto;html=1;" edge="1" parent="WIyWlLk6GJQsqaUBKTNV-1" source="hy8ncsl_hrlQ7l1LEnPW-40" target="hy8ncsl_hrlQ7l1LEnPW-38">
          <mxGeometry relative="1" as="geometry">
            <Array as="points">
              <mxPoint x="410" y="1390" />
            </Array>
          </mxGeometry>
        </mxCell>
        <mxCell id="hy8ncsl_hrlQ7l1LEnPW-49" value="yes" style="edgeLabel;html=1;align=center;verticalAlign=middle;resizable=0;points=[];" vertex="1" connectable="0" parent="hy8ncsl_hrlQ7l1LEnPW-48">
          <mxGeometry x="-0.16" relative="1" as="geometry">
            <mxPoint as="offset" />
          </mxGeometry>
        </mxCell>
        <mxCell id="hy8ncsl_hrlQ7l1LEnPW-40" value="is there any task in idle list&lt;br&gt;&amp;amp;&amp;amp;&lt;br&gt;startTime&amp;gt;Now" style="rhombus;whiteSpace=wrap;html=1;rounded=0;" vertex="1" parent="WIyWlLk6GJQsqaUBKTNV-1">
          <mxGeometry x="340" y="1190" width="140" height="110" as="geometry" />
        </mxCell>
        <mxCell id="hy8ncsl_hrlQ7l1LEnPW-47" style="edgeStyle=orthogonalEdgeStyle;rounded=0;orthogonalLoop=1;jettySize=auto;html=1;" edge="1" parent="WIyWlLk6GJQsqaUBKTNV-1" source="hy8ncsl_hrlQ7l1LEnPW-42">
          <mxGeometry relative="1" as="geometry">
            <mxPoint x="410" y="1170" as="targetPoint" />
            <Array as="points">
              <mxPoint x="230" y="1170" />
            </Array>
          </mxGeometry>
        </mxCell>
        <mxCell id="hy8ncsl_hrlQ7l1LEnPW-42" value="sleep 200ms" style="whiteSpace=wrap;html=1;rounded=0;" vertex="1" parent="WIyWlLk6GJQsqaUBKTNV-1">
          <mxGeometry x="170" y="1225" width="120" height="40" as="geometry" />
        </mxCell>
        <mxCell id="hy8ncsl_hrlQ7l1LEnPW-54" value="" style="edgeStyle=orthogonalEdgeStyle;rounded=0;orthogonalLoop=1;jettySize=auto;html=1;" edge="1" parent="WIyWlLk6GJQsqaUBKTNV-1" source="hy8ncsl_hrlQ7l1LEnPW-50" target="hy8ncsl_hrlQ7l1LEnPW-53">
          <mxGeometry relative="1" as="geometry" />
        </mxCell>
        <mxCell id="hy8ncsl_hrlQ7l1LEnPW-56" value="" style="edgeStyle=orthogonalEdgeStyle;rounded=0;orthogonalLoop=1;jettySize=auto;html=1;" edge="1" parent="WIyWlLk6GJQsqaUBKTNV-1" source="hy8ncsl_hrlQ7l1LEnPW-50" target="hy8ncsl_hrlQ7l1LEnPW-55">
          <mxGeometry relative="1" as="geometry" />
        </mxCell>
        <mxCell id="hy8ncsl_hrlQ7l1LEnPW-108" value="yes" style="edgeLabel;html=1;align=center;verticalAlign=middle;resizable=0;points=[];" vertex="1" connectable="0" parent="hy8ncsl_hrlQ7l1LEnPW-56">
          <mxGeometry x="-0.2333" y="1" relative="1" as="geometry">
            <mxPoint x="-1" as="offset" />
          </mxGeometry>
        </mxCell>
        <mxCell id="hy8ncsl_hrlQ7l1LEnPW-50" value="is task canceled" style="rhombus;whiteSpace=wrap;html=1;rounded=0;" vertex="1" parent="WIyWlLk6GJQsqaUBKTNV-1">
          <mxGeometry x="370" y="1420" width="80" height="80" as="geometry" />
        </mxCell>
        <mxCell id="hy8ncsl_hrlQ7l1LEnPW-58" value="" style="edgeStyle=orthogonalEdgeStyle;rounded=0;orthogonalLoop=1;jettySize=auto;html=1;" edge="1" parent="WIyWlLk6GJQsqaUBKTNV-1" source="hy8ncsl_hrlQ7l1LEnPW-53" target="hy8ncsl_hrlQ7l1LEnPW-57">
          <mxGeometry relative="1" as="geometry" />
        </mxCell>
        <mxCell id="hy8ncsl_hrlQ7l1LEnPW-53" value="do classify" style="whiteSpace=wrap;html=1;rounded=0;" vertex="1" parent="WIyWlLk6GJQsqaUBKTNV-1">
          <mxGeometry x="350" y="1520" width="120" height="60" as="geometry" />
        </mxCell>
        <mxCell id="hy8ncsl_hrlQ7l1LEnPW-55" value="onTaskCancel" style="whiteSpace=wrap;html=1;rounded=0;" vertex="1" parent="WIyWlLk6GJQsqaUBKTNV-1">
          <mxGeometry x="190" y="1430" width="120" height="60" as="geometry" />
        </mxCell>
        <mxCell id="hy8ncsl_hrlQ7l1LEnPW-62" value="" style="edgeStyle=orthogonalEdgeStyle;rounded=0;orthogonalLoop=1;jettySize=auto;html=1;" edge="1" parent="WIyWlLk6GJQsqaUBKTNV-1" source="hy8ncsl_hrlQ7l1LEnPW-57" target="hy8ncsl_hrlQ7l1LEnPW-61">
          <mxGeometry relative="1" as="geometry" />
        </mxCell>
        <mxCell id="hy8ncsl_hrlQ7l1LEnPW-63" value="error" style="edgeLabel;html=1;align=center;verticalAlign=middle;resizable=0;points=[];" vertex="1" connectable="0" parent="hy8ncsl_hrlQ7l1LEnPW-62">
          <mxGeometry x="-0.26" y="1" relative="1" as="geometry">
            <mxPoint as="offset" />
          </mxGeometry>
        </mxCell>
        <mxCell id="hy8ncsl_hrlQ7l1LEnPW-68" value="no error" style="edgeStyle=orthogonalEdgeStyle;rounded=0;orthogonalLoop=1;jettySize=auto;html=1;" edge="1" parent="WIyWlLk6GJQsqaUBKTNV-1" source="hy8ncsl_hrlQ7l1LEnPW-57" target="hy8ncsl_hrlQ7l1LEnPW-67">
          <mxGeometry relative="1" as="geometry" />
        </mxCell>
        <mxCell id="hy8ncsl_hrlQ7l1LEnPW-57" value="error" style="rhombus;whiteSpace=wrap;html=1;rounded=0;" vertex="1" parent="WIyWlLk6GJQsqaUBKTNV-1">
          <mxGeometry x="370" y="1600" width="80" height="50" as="geometry" />
        </mxCell>
        <mxCell id="hy8ncsl_hrlQ7l1LEnPW-61" value="to BreakOff flow" style="whiteSpace=wrap;html=1;rounded=0;" vertex="1" parent="WIyWlLk6GJQsqaUBKTNV-1">
          <mxGeometry x="190" y="1595" width="120" height="60" as="geometry" />
        </mxCell>
        <mxCell id="hy8ncsl_hrlQ7l1LEnPW-70" value="" style="edgeStyle=orthogonalEdgeStyle;rounded=0;orthogonalLoop=1;jettySize=auto;html=1;" edge="1" parent="WIyWlLk6GJQsqaUBKTNV-1" source="hy8ncsl_hrlQ7l1LEnPW-67" target="hy8ncsl_hrlQ7l1LEnPW-69">
          <mxGeometry relative="1" as="geometry">
            <Array as="points">
              <mxPoint x="510" y="1730" />
              <mxPoint x="510" y="1410" />
            </Array>
          </mxGeometry>
        </mxCell>
        <mxCell id="hy8ncsl_hrlQ7l1LEnPW-73" value="yes" style="edgeLabel;html=1;align=center;verticalAlign=middle;resizable=0;points=[];" vertex="1" connectable="0" parent="hy8ncsl_hrlQ7l1LEnPW-70">
          <mxGeometry x="-0.3248" y="-2" relative="1" as="geometry">
            <mxPoint as="offset" />
          </mxGeometry>
        </mxCell>
        <mxCell id="hy8ncsl_hrlQ7l1LEnPW-72" value="" style="edgeStyle=orthogonalEdgeStyle;rounded=0;orthogonalLoop=1;jettySize=auto;html=1;" edge="1" parent="WIyWlLk6GJQsqaUBKTNV-1" source="hy8ncsl_hrlQ7l1LEnPW-67" target="hy8ncsl_hrlQ7l1LEnPW-71">
          <mxGeometry relative="1" as="geometry">
            <Array as="points">
              <mxPoint x="410" y="1850" />
              <mxPoint x="550" y="1850" />
              <mxPoint x="550" y="1520" />
            </Array>
          </mxGeometry>
        </mxCell>
        <mxCell id="hy8ncsl_hrlQ7l1LEnPW-74" value="no" style="edgeLabel;html=1;align=center;verticalAlign=middle;resizable=0;points=[];" vertex="1" connectable="0" parent="hy8ncsl_hrlQ7l1LEnPW-72">
          <mxGeometry x="-0.3942" y="2" relative="1" as="geometry">
            <mxPoint as="offset" />
          </mxGeometry>
        </mxCell>
        <mxCell id="hy8ncsl_hrlQ7l1LEnPW-67" value="can resume" style="rhombus;whiteSpace=wrap;html=1;rounded=0;" vertex="1" parent="WIyWlLk6GJQsqaUBKTNV-1">
          <mxGeometry x="370" y="1700" width="80" height="60" as="geometry" />
        </mxCell>
        <mxCell id="hy8ncsl_hrlQ7l1LEnPW-69" value="push into RandomChannel" style="whiteSpace=wrap;html=1;rounded=0;" vertex="1" parent="WIyWlLk6GJQsqaUBKTNV-1">
          <mxGeometry x="580" y="1380" width="120" height="60" as="geometry" />
        </mxCell>
        <mxCell id="hy8ncsl_hrlQ7l1LEnPW-80" value="" style="edgeStyle=orthogonalEdgeStyle;rounded=0;orthogonalLoop=1;jettySize=auto;html=1;dashed=1;dashPattern=1 1;" edge="1" parent="WIyWlLk6GJQsqaUBKTNV-1" source="hy8ncsl_hrlQ7l1LEnPW-71" target="hy8ncsl_hrlQ7l1LEnPW-79">
          <mxGeometry relative="1" as="geometry">
            <Array as="points">
              <mxPoint x="740" y="1520" />
              <mxPoint x="740" y="1670" />
            </Array>
          </mxGeometry>
        </mxCell>
        <mxCell id="hy8ncsl_hrlQ7l1LEnPW-71" value="push into&lt;br&gt;UnpauseChannel" style="whiteSpace=wrap;html=1;rounded=0;" vertex="1" parent="WIyWlLk6GJQsqaUBKTNV-1">
          <mxGeometry x="580" y="1490" width="120" height="60" as="geometry" />
        </mxCell>
        <mxCell id="hy8ncsl_hrlQ7l1LEnPW-78" value="classify goroutine" style="text;html=1;strokeColor=none;fillColor=none;align=center;verticalAlign=middle;whiteSpace=wrap;rounded=0;glass=0;dashed=1;" vertex="1" parent="WIyWlLk6GJQsqaUBKTNV-1">
          <mxGeometry x="130" y="1150" width="90" height="30" as="geometry" />
        </mxCell>
        <mxCell id="hy8ncsl_hrlQ7l1LEnPW-79" value="push into UnpauseSlowChannel" style="whiteSpace=wrap;html=1;rounded=0;" vertex="1" parent="WIyWlLk6GJQsqaUBKTNV-1">
          <mxGeometry x="580" y="1640" width="120" height="60" as="geometry" />
        </mxCell>
        <mxCell id="hy8ncsl_hrlQ7l1LEnPW-81" value="if download speed is too slow" style="rounded=0;whiteSpace=wrap;html=1;glass=0;dashed=1;strokeColor=none;fillColor=none;" vertex="1" parent="WIyWlLk6GJQsqaUBKTNV-1">
          <mxGeometry x="620" y="1600" width="120" height="30" as="geometry" />
        </mxCell>
        <mxCell id="hy8ncsl_hrlQ7l1LEnPW-84" value="check speed when downloading" style="text;html=1;strokeColor=none;fillColor=none;align=center;verticalAlign=middle;whiteSpace=wrap;rounded=0;glass=0;dashed=1;" vertex="1" parent="WIyWlLk6GJQsqaUBKTNV-1">
          <mxGeometry x="560" y="1560" width="120" height="30" as="geometry" />
        </mxCell>
        <mxCell id="hy8ncsl_hrlQ7l1LEnPW-87" value="" style="edgeStyle=orthogonalEdgeStyle;rounded=0;orthogonalLoop=1;jettySize=auto;html=1;" edge="1" parent="WIyWlLk6GJQsqaUBKTNV-1" source="hy8ncsl_hrlQ7l1LEnPW-85" target="hy8ncsl_hrlQ7l1LEnPW-86">
          <mxGeometry relative="1" as="geometry" />
        </mxCell>
        <mxCell id="hy8ncsl_hrlQ7l1LEnPW-85" value="channel idle list" style="rounded=0;whiteSpace=wrap;html=1;glass=0;strokeColor=default;fillColor=none;" vertex="1" parent="WIyWlLk6GJQsqaUBKTNV-1">
          <mxGeometry x="1300" y="40" width="110" height="50" as="geometry" />
        </mxCell>
        <mxCell id="hy8ncsl_hrlQ7l1LEnPW-90" value="" style="edgeStyle=orthogonalEdgeStyle;rounded=0;orthogonalLoop=1;jettySize=auto;html=1;" edge="1" parent="WIyWlLk6GJQsqaUBKTNV-1" source="hy8ncsl_hrlQ7l1LEnPW-86" target="hy8ncsl_hrlQ7l1LEnPW-89">
          <mxGeometry relative="1" as="geometry" />
        </mxCell>
        <mxCell id="hy8ncsl_hrlQ7l1LEnPW-96" value="no" style="edgeLabel;html=1;align=center;verticalAlign=middle;resizable=0;points=[];" vertex="1" connectable="0" parent="hy8ncsl_hrlQ7l1LEnPW-90">
          <mxGeometry x="-0.0319" relative="1" as="geometry">
            <mxPoint x="-1" as="offset" />
          </mxGeometry>
        </mxCell>
        <mxCell id="hy8ncsl_hrlQ7l1LEnPW-95" value="" style="edgeStyle=orthogonalEdgeStyle;rounded=0;orthogonalLoop=1;jettySize=auto;html=1;" edge="1" parent="WIyWlLk6GJQsqaUBKTNV-1" source="hy8ncsl_hrlQ7l1LEnPW-86" target="hy8ncsl_hrlQ7l1LEnPW-94">
          <mxGeometry relative="1" as="geometry" />
        </mxCell>
        <mxCell id="hy8ncsl_hrlQ7l1LEnPW-86" value="is there any task &lt;br&gt;in idle list&lt;br&gt;&amp;amp;&amp;amp;&lt;br&gt;startTime&amp;gt;Now" style="rhombus;whiteSpace=wrap;html=1;fillColor=none;rounded=0;glass=0;" vertex="1" parent="WIyWlLk6GJQsqaUBKTNV-1">
          <mxGeometry x="1270" y="142.5" width="170" height="117.5" as="geometry" />
        </mxCell>
        <mxCell id="hy8ncsl_hrlQ7l1LEnPW-93" style="edgeStyle=orthogonalEdgeStyle;rounded=0;orthogonalLoop=1;jettySize=auto;html=1;entryX=0.5;entryY=0;entryDx=0;entryDy=0;" edge="1" parent="WIyWlLk6GJQsqaUBKTNV-1" source="hy8ncsl_hrlQ7l1LEnPW-89" target="hy8ncsl_hrlQ7l1LEnPW-86">
          <mxGeometry relative="1" as="geometry">
            <Array as="points">
              <mxPoint x="1143" y="123" />
              <mxPoint x="1355" y="123" />
            </Array>
          </mxGeometry>
        </mxCell>
        <mxCell id="hy8ncsl_hrlQ7l1LEnPW-89" value="sleep 200ms" style="whiteSpace=wrap;html=1;fillColor=none;rounded=0;glass=0;" vertex="1" parent="WIyWlLk6GJQsqaUBKTNV-1">
          <mxGeometry x="1082.5" y="171.25" width="120" height="60" as="geometry" />
        </mxCell>
        <mxCell id="hy8ncsl_hrlQ7l1LEnPW-101" value="" style="edgeStyle=orthogonalEdgeStyle;rounded=0;orthogonalLoop=1;jettySize=auto;html=1;" edge="1" parent="WIyWlLk6GJQsqaUBKTNV-1" source="hy8ncsl_hrlQ7l1LEnPW-94" target="hy8ncsl_hrlQ7l1LEnPW-100">
          <mxGeometry relative="1" as="geometry" />
        </mxCell>
        <mxCell id="hy8ncsl_hrlQ7l1LEnPW-94" value="get task from idle list&lt;br&gt;random get in randomChannel&lt;br&gt;FIFO in other channel" style="whiteSpace=wrap;html=1;fillColor=none;rounded=0;glass=0;" vertex="1" parent="WIyWlLk6GJQsqaUBKTNV-1">
          <mxGeometry x="1247.5" y="290" width="215" height="60" as="geometry" />
        </mxCell>
        <mxCell id="hy8ncsl_hrlQ7l1LEnPW-103" value="" style="edgeStyle=orthogonalEdgeStyle;rounded=0;orthogonalLoop=1;jettySize=auto;html=1;" edge="1" parent="WIyWlLk6GJQsqaUBKTNV-1" source="hy8ncsl_hrlQ7l1LEnPW-100" target="hy8ncsl_hrlQ7l1LEnPW-102">
          <mxGeometry relative="1" as="geometry" />
        </mxCell>
        <mxCell id="hy8ncsl_hrlQ7l1LEnPW-106" value="yes" style="edgeLabel;html=1;align=center;verticalAlign=middle;resizable=0;points=[];" vertex="1" connectable="0" parent="hy8ncsl_hrlQ7l1LEnPW-103">
          <mxGeometry x="-0.08" y="1" relative="1" as="geometry">
            <mxPoint x="-1" as="offset" />
          </mxGeometry>
        </mxCell>
        <mxCell id="hy8ncsl_hrlQ7l1LEnPW-110" value="" style="edgeStyle=orthogonalEdgeStyle;rounded=0;orthogonalLoop=1;jettySize=auto;html=1;" edge="1" parent="WIyWlLk6GJQsqaUBKTNV-1" source="hy8ncsl_hrlQ7l1LEnPW-100" target="hy8ncsl_hrlQ7l1LEnPW-109">
          <mxGeometry relative="1" as="geometry" />
        </mxCell>
        <mxCell id="hy8ncsl_hrlQ7l1LEnPW-113" value="no" style="edgeLabel;html=1;align=center;verticalAlign=middle;resizable=0;points=[];" vertex="1" connectable="0" parent="hy8ncsl_hrlQ7l1LEnPW-110">
          <mxGeometry x="-0.11" y="-3" relative="1" as="geometry">
            <mxPoint as="offset" />
          </mxGeometry>
        </mxCell>
        <mxCell id="hy8ncsl_hrlQ7l1LEnPW-100" value="is task&amp;nbsp;&lt;br&gt;canceled" style="rhombus;whiteSpace=wrap;html=1;fillColor=none;rounded=0;glass=0;" vertex="1" parent="WIyWlLk6GJQsqaUBKTNV-1">
          <mxGeometry x="1315" y="400" width="80" height="80" as="geometry" />
        </mxCell>
        <mxCell id="hy8ncsl_hrlQ7l1LEnPW-102" value="onTaskCancel" style="whiteSpace=wrap;html=1;fillColor=none;rounded=0;glass=0;" vertex="1" parent="WIyWlLk6GJQsqaUBKTNV-1">
          <mxGeometry x="1120" y="410" width="120" height="60" as="geometry" />
        </mxCell>
        <mxCell id="hy8ncsl_hrlQ7l1LEnPW-126" value="" style="edgeStyle=orthogonalEdgeStyle;rounded=0;orthogonalLoop=1;jettySize=auto;html=1;" edge="1" parent="WIyWlLk6GJQsqaUBKTNV-1" source="hy8ncsl_hrlQ7l1LEnPW-104" target="hy8ncsl_hrlQ7l1LEnPW-125">
          <mxGeometry relative="1" as="geometry" />
        </mxCell>
        <mxCell id="hy8ncsl_hrlQ7l1LEnPW-104" value="start dwonload" style="whiteSpace=wrap;html=1;fillColor=none;rounded=0;glass=0;" vertex="1" parent="WIyWlLk6GJQsqaUBKTNV-1">
          <mxGeometry x="1295" y="640" width="120" height="60" as="geometry" />
        </mxCell>
        <mxCell id="hy8ncsl_hrlQ7l1LEnPW-112" style="edgeStyle=orthogonalEdgeStyle;rounded=0;orthogonalLoop=1;jettySize=auto;html=1;entryX=0.5;entryY=0;entryDx=0;entryDy=0;" edge="1" parent="WIyWlLk6GJQsqaUBKTNV-1" source="hy8ncsl_hrlQ7l1LEnPW-109" target="hy8ncsl_hrlQ7l1LEnPW-104">
          <mxGeometry relative="1" as="geometry" />
        </mxCell>
        <mxCell id="hy8ncsl_hrlQ7l1LEnPW-114" value="on" style="edgeLabel;html=1;align=center;verticalAlign=middle;resizable=0;points=[];" vertex="1" connectable="0" parent="hy8ncsl_hrlQ7l1LEnPW-112">
          <mxGeometry x="-0.06" y="-3" relative="1" as="geometry">
            <mxPoint as="offset" />
          </mxGeometry>
        </mxCell>
        <mxCell id="hy8ncsl_hrlQ7l1LEnPW-122" value="yes" style="edgeStyle=orthogonalEdgeStyle;rounded=0;orthogonalLoop=1;jettySize=auto;html=1;" edge="1" parent="WIyWlLk6GJQsqaUBKTNV-1" source="hy8ncsl_hrlQ7l1LEnPW-109" target="hy8ncsl_hrlQ7l1LEnPW-121">
          <mxGeometry relative="1" as="geometry" />
        </mxCell>
        <mxCell id="hy8ncsl_hrlQ7l1LEnPW-109" value="is task&lt;br&gt;expire" style="rhombus;whiteSpace=wrap;html=1;fillColor=none;rounded=0;glass=0;" vertex="1" parent="WIyWlLk6GJQsqaUBKTNV-1">
          <mxGeometry x="1310" y="530" width="85" height="60" as="geometry" />
        </mxCell>
        <mxCell id="hy8ncsl_hrlQ7l1LEnPW-116" value="only for quick task" style="text;html=1;strokeColor=none;fillColor=none;align=center;verticalAlign=middle;whiteSpace=wrap;rounded=0;glass=0;dashed=1;" vertex="1" parent="WIyWlLk6GJQsqaUBKTNV-1">
          <mxGeometry x="1040" y="510" width="60" height="30" as="geometry" />
        </mxCell>
        <mxCell id="hy8ncsl_hrlQ7l1LEnPW-121" value="taskFail" style="whiteSpace=wrap;html=1;fillColor=none;rounded=0;glass=0;" vertex="1" parent="WIyWlLk6GJQsqaUBKTNV-1">
          <mxGeometry x="1120" y="530" width="120" height="60" as="geometry" />
        </mxCell>
        <mxCell id="hy8ncsl_hrlQ7l1LEnPW-124" value="channel start download task goroutine" style="text;html=1;strokeColor=none;fillColor=none;align=center;verticalAlign=middle;whiteSpace=wrap;rounded=0;glass=0;dashed=1;" vertex="1" parent="WIyWlLk6GJQsqaUBKTNV-1">
          <mxGeometry x="920" y="20" width="120" height="60" as="geometry" />
        </mxCell>
        <mxCell id="hy8ncsl_hrlQ7l1LEnPW-128" value="" style="edgeStyle=orthogonalEdgeStyle;rounded=0;orthogonalLoop=1;jettySize=auto;html=1;" edge="1" parent="WIyWlLk6GJQsqaUBKTNV-1" source="hy8ncsl_hrlQ7l1LEnPW-125" target="hy8ncsl_hrlQ7l1LEnPW-127">
          <mxGeometry relative="1" as="geometry" />
        </mxCell>
        <mxCell id="hy8ncsl_hrlQ7l1LEnPW-125" value="save header" style="whiteSpace=wrap;html=1;fillColor=none;rounded=0;glass=0;" vertex="1" parent="WIyWlLk6GJQsqaUBKTNV-1">
          <mxGeometry x="1295" y="740" width="120" height="60" as="geometry" />
        </mxCell>
        <mxCell id="hy8ncsl_hrlQ7l1LEnPW-127" value="check task status every 2 sec" style="whiteSpace=wrap;html=1;fillColor=none;rounded=0;glass=0;" vertex="1" parent="WIyWlLk6GJQsqaUBKTNV-1">
          <mxGeometry x="1295" y="840" width="120" height="60" as="geometry" />
        </mxCell>
        <mxCell id="hy8ncsl_hrlQ7l1LEnPW-131" value="" style="edgeStyle=orthogonalEdgeStyle;rounded=0;orthogonalLoop=1;jettySize=auto;html=1;" edge="1" parent="WIyWlLk6GJQsqaUBKTNV-1" source="hy8ncsl_hrlQ7l1LEnPW-129" target="hy8ncsl_hrlQ7l1LEnPW-130">
          <mxGeometry relative="1" as="geometry" />
        </mxCell>
        <mxCell id="hy8ncsl_hrlQ7l1LEnPW-129" value="is canceled" style="rhombus;whiteSpace=wrap;html=1;rounded=0;glass=0;strokeColor=default;fillColor=none;" vertex="1" parent="WIyWlLk6GJQsqaUBKTNV-1">
          <mxGeometry x="980" y="940" width="80" height="80" as="geometry" />
        </mxCell>
        <mxCell id="hy8ncsl_hrlQ7l1LEnPW-133" value="" style="edgeStyle=orthogonalEdgeStyle;rounded=0;orthogonalLoop=1;jettySize=auto;html=1;" edge="1" parent="WIyWlLk6GJQsqaUBKTNV-1" source="hy8ncsl_hrlQ7l1LEnPW-130" target="hy8ncsl_hrlQ7l1LEnPW-132">
          <mxGeometry relative="1" as="geometry" />
        </mxCell>
        <mxCell id="hy8ncsl_hrlQ7l1LEnPW-130" value="is reach&lt;br&gt;size limit" style="rhombus;whiteSpace=wrap;html=1;fillColor=none;rounded=0;glass=0;" vertex="1" parent="WIyWlLk6GJQsqaUBKTNV-1">
          <mxGeometry x="980" y="1100" width="80" height="80" as="geometry" />
        </mxCell>
        <mxCell id="hy8ncsl_hrlQ7l1LEnPW-132" value="" style="rhombus;whiteSpace=wrap;html=1;fillColor=none;rounded=0;glass=0;" vertex="1" parent="WIyWlLk6GJQsqaUBKTNV-1">
          <mxGeometry x="980" y="1260" width="80" height="80" as="geometry" />
        </mxCell>
      </root>
    </mxGraphModel>
  </diagram>
</mxfile>
